<?xml version="1.0" encoding="UTF-8"?>
<svg id="Layer_2" data-name="Layer 2" xmlns="http://www.w3.org/2000/svg" viewBox="0 0 129.61 129.61">
  <defs>
    <style>
      .cls-1 {
        stroke: #fff;
        stroke-linecap: round;
        stroke-linejoin: round;
        stroke-width: 2px;
      }

      .cls-1, .cls-2 {
        fill: none;
      }

      .cls-2 {
        stroke-width: 0px;
      }
    </style>
  </defs>
  <g id="Réteg_1" data-name="Réteg 1">
    <g>
      <rect class="cls-2" width="129.61" height="129.61"/>
      <g>
        <path class="cls-1" d="M47.81,88.53v-50.85c0-9.37,7.59-16.96,16.96-16.96h0c9.37,0,16.96,7.59,16.96,16.96v50.85"/>
        <path class="cls-1" d="M59.32,88.53v-53.04c0-3.01,2.44-5.44,5.44-5.44h0c3.01,0,5.44,2.44,5.44,5.44v53.04"/>
        <rect class="cls-1" x="45.36" y="88.69" width="38.88" height="20.2" transform="translate(129.61 197.57) rotate(180)"/>
        <line class="cls-1" x1="55.61" y1="84.37" x2="74.42" y2="79.52"/>
        <line class="cls-1" x1="55.61" y1="78.18" x2="74.42" y2="73.33"/>
        <line class="cls-1" x1="55.61" y1="72" x2="74.42" y2="67.15"/>
        <line class="cls-1" x1="55.61" y1="65.81" x2="74.42" y2="60.96"/>
        <line class="cls-1" x1="55.61" y1="59.63" x2="74.42" y2="54.78"/>
        <line class="cls-1" x1="55.61" y1="53.44" x2="74.42" y2="48.59"/>
        <line class="cls-1" x1="55.61" y1="47.26" x2="74.42" y2="42.41"/>
        <line class="cls-1" x1="55.61" y1="41.07" x2="74.42" y2="36.22"/>
        <line class="cls-1" x1="55.61" y1="34.89" x2="74.42" y2="30.04"/>
      </g>
    </g>
  </g>
</svg>