<?xml version="1.0" encoding="UTF-8"?>
<svg id="Layer_2" data-name="Layer 2" xmlns="http://www.w3.org/2000/svg" viewBox="0 0 129.61 129.61">
  <defs>
    <style>
      .cls-1 {
        stroke: #fff;
        stroke-linecap: round;
        stroke-linejoin: round;
        stroke-width: 2px;
      }

      .cls-1, .cls-2 {
        fill: none;
      }

      .cls-2 {
        stroke-width: 0px;
      }
    </style>
  </defs>
  <g id="Réteg_1" data-name="Réteg 1">
    <g>
      <rect class="cls-2" width="129.61" height="129.61"/>
      <g>
        <line class="cls-1" x1="104.29" y1="100.62" x2="25.31" y2="100.62"/>
        <path class="cls-1" d="M28.4,49.85l5.65-5.65c2.4-2.4,6.28-2.4,8.68,0l.63.63c2.4,2.4,6.28,2.4,8.68,0l.57-.57c2.4-2.4,6.28-2.4,8.68,0l.68.68c2.4,2.4,6.28,2.4,8.68,0h0c2.4-2.4,6.28-2.4,8.68,0l.51.51c2.4,2.4,6.28,2.4,8.68,0h0c2.4-2.4,6.28-2.4,8.68,0l4,4"/>
        <circle class="cls-1" cx="52.53" cy="75.76" r="2.21"/>
        <circle class="cls-1" cx="59.21" cy="67.74" r="2.94"/>
        <path class="cls-1" d="M75.28,27.14c1.05,1.05,1.05,2.74,0,3.79l-.04.04c-1.05,1.05-1.05,2.74,0,3.79h0c1.05,1.05,1.05,2.74,0,3.79h0c-1.05,1.05-1.05,2.74,0,3.79"/>
        <path class="cls-1" d="M83.52,17.62c1.05,1.05,1.05,2.74,0,3.79l-.04.04c-1.05,1.05-1.05,2.74,0,3.79h0c1.05,1.05,1.05,2.74,0,3.79h0c-1.05,1.05-1.05,2.74,0,3.79"/>
        <polyline class="cls-1" points="25.31 100.62 15.29 100.62 15.29 40 25.31 40 25.31 90.6"/>
        <polyline class="cls-1" points="104.29 100.62 114.31 100.62 114.31 40 104.29 40 104.29 90.6"/>
        <line class="cls-1" x1="104.29" y1="100.62" x2="25.31" y2="100.62"/>
        <line class="cls-1" x1="104.29" y1="90.6" x2="25.31" y2="90.6"/>
      </g>
    </g>
  </g>
</svg>