<?xml version="1.0" encoding="UTF-8"?>
<svg id="Layer_2" data-name="Layer 2" xmlns="http://www.w3.org/2000/svg" viewBox="0 0 129.61 129.61">
  <defs>
    <style>
      .cls-1 {
        stroke: #fff;
        stroke-linecap: round;
        stroke-linejoin: round;
        stroke-width: 2px;
      }

      .cls-1, .cls-2 {
        fill: none;
      }

      .cls-2 {
        stroke-width: 0px;
      }
    </style>
  </defs>
  <g id="Réteg_1" data-name="Réteg 1">
    <g>
      <rect class="cls-2" width="129.61" height="129.61"/>
      <g>
        <path class="cls-1" d="M83.46,55.63c0,12.01-9.74,21.75-21.75,21.75h0c-12.01,0-21.75-9.74-21.75-21.75h43.5Z"/>
        <path class="cls-1" d="M52.52,24.87c8.49-8.49,22.26-8.49,30.76,0h0c8.49,8.49,8.49,22.26,0,30.76l-30.76-30.76Z"/>
        <line class="cls-1" x1="53.29" y1="75.69" x2="39.96" y2="111.11"/>
        <line class="cls-1" x1="70.12" y1="75.69" x2="83.46" y2="111.11"/>
      </g>
      <path class="cls-1" d="M44.75,31.13c1.05,1.05,1.05,2.74,0,3.79l-.04.04c-1.05,1.05-1.05,2.74,0,3.79h0c1.05,1.05,1.05,2.74,0,3.79h0c-1.05,1.05-1.05,2.74,0,3.79"/>
      <path class="cls-1" d="M52.98,39.31c1.05,1.05,1.05,2.74,0,3.79l-.04.04c-1.05,1.05-1.05,2.74,0,3.79h0c1.05,1.05,1.05,2.74,0,3.79h0c-1.05,1.05-1.05,2.74,0,3.79"/>
    </g>
  </g>
</svg>