<?xml version="1.0" encoding="UTF-8"?>
<svg id="Layer_2" data-name="Layer 2" xmlns="http://www.w3.org/2000/svg" viewBox="0 0 129.61 129.61">
  <defs>
    <style>
      .cls-1 {
        stroke: #fff;
        stroke-linecap: round;
        stroke-linejoin: round;
        stroke-width: 2px;
      }

      .cls-1, .cls-2 {
        fill: none;
      }

      .cls-2, .cls-3 {
        stroke-width: 0px;
      }

      .cls-3 {
        fill: #fff;
      }
    </style>
  </defs>
  <g id="Réteg_1" data-name="Réteg 1">
    <g>
      <g>
        <rect class="cls-1" x="33.87" y="43.46" width="61.87" height="47.08"/>
        <circle class="cls-1" cx="64.86" cy="67" r="14.75"/>
        <circle class="cls-3" cx="64.86" cy="67" r="3.55"/>
        <path class="cls-3" d="M68.41,67h-7.09l-1.3-8.81c-.43-2.9,1.82-5.5,4.75-5.5h0c2.89,0,5.12,2.53,4.76,5.39l-1.11,8.92Z"/>
        <path class="cls-3" d="M63.27,64.15l3.61,6.1-6.92,5.61c-2.28,1.84-5.66,1.24-7.15-1.28h0c-1.47-2.48-.43-5.69,2.22-6.84l8.24-3.58Z"/>
        <path class="cls-3" d="M66.39,64.15l-3.61,6.1,6.92,5.61c2.28,1.84,5.66,1.24,7.15-1.28h0c1.47-2.48.43-5.69-2.22-6.84l-8.24-3.58Z"/>
        <path class="cls-1" d="M38.26,39.07h53.08c2.43,0,4.39,1.97,4.39,4.39h-61.87c0-2.43,1.97-4.39,4.39-4.39Z"/>
        <path class="cls-1" d="M9.88,83.29c0-13.26,10.75-24.02,24.02-24.02"/>
        <path class="cls-1" d="M26.02,83.29c0-4.35,3.52-7.88,7.88-7.88"/>
        <line class="cls-1" x1="26.01" y1="83.3" x2="26.01" y2="99"/>
        <line class="cls-1" x1="9.87" y1="83.3" x2="9.87" y2="99"/>
        <path class="cls-1" d="M119.31,52.16c0,13.26-10.75,24.02-24.02,24.02"/>
        <path class="cls-1" d="M103.17,52.16c0,4.35-3.52,7.88-7.88,7.88"/>
        <line class="cls-1" x1="103.18" y1="52.16" x2="103.18" y2="36.46"/>
        <line class="cls-1" x1="119.32" y1="52.16" x2="119.32" y2="36.46"/>
      </g>
      <rect class="cls-2" width="129.61" height="129.61"/>
    </g>
  </g>
</svg>