<?xml version="1.0" encoding="UTF-8"?>
<svg id="Layer_2" data-name="Layer 2" xmlns="http://www.w3.org/2000/svg" viewBox="0 0 129.61 129.61">
  <defs>
    <style>
      .cls-1 {
        stroke: #fff;
        stroke-linecap: round;
        stroke-linejoin: round;
        stroke-width: 2px;
      }

      .cls-1, .cls-2 {
        fill: none;
      }

      .cls-2 {
        stroke-width: 0px;
      }
    </style>
  </defs>
  <g id="Réteg_1" data-name="Réteg 1">
    <g>
      <rect class="cls-2" width="129.61" height="129.61"/>
      <rect class="cls-1" x="36.89" y="34.89" width="55.82" height="63.49"/>
      <rect class="cls-1" x="32.12" y="25.52" width="65.36" height="9.37"/>
      <rect class="cls-1" x="32.12" y="98.39" width="65.36" height="9.37"/>
      <line class="cls-1" x1="54.59" y1="34.89" x2="54.59" y2="98.39"/>
      <line class="cls-1" x1="59.27" y1="60.73" x2="59.27" y2="72.55"/>
      <path class="cls-1" d="M82.99,41.83c1.05,1.05,1.05,2.74,0,3.79l-.04.04c-1.05,1.05-1.05,2.74,0,3.79h0c1.05,1.05,1.05,2.74,0,3.79h0c-1.05,1.05-1.05,2.74,0,3.79"/>
      <path class="cls-1" d="M78.86,49.88c1.05,1.05,1.05,2.74,0,3.79l-.04.04c-1.05,1.05-1.05,2.74,0,3.79h0c1.05,1.05,1.05,2.74,0,3.79h0c-1.05,1.05-1.05,2.74,0,3.79"/>
      <line class="cls-1" x1="43.02" y1="34.89" x2="43.02" y2="98.39"/>
      <line class="cls-1" x1="48.64" y1="34.89" x2="48.64" y2="98.39"/>
      <line class="cls-1" x1="62.76" y1="83.55" x2="92.72" y2="83.55"/>
      <line class="cls-1" x1="68.89" y1="80.58" x2="76.72" y2="80.58"/>
      <line class="cls-1" x1="82.16" y1="80.58" x2="88.98" y2="80.58"/>
    </g>
  </g>
</svg>