<?xml version="1.0" encoding="UTF-8"?>
<svg id="Layer_2" data-name="Layer 2" xmlns="http://www.w3.org/2000/svg" viewBox="0 0 129.61 129.61">
  <defs>
    <style>
      .cls-1 {
        stroke: #fff;
        stroke-linecap: round;
        stroke-linejoin: round;
        stroke-width: 2px;
      }

      .cls-1, .cls-2 {
        fill: none;
      }

      .cls-2, .cls-3 {
        stroke-width: 0px;
      }

      .cls-3 {
        fill: #fff;
      }
    </style>
  </defs>
  <g id="Réteg_1" data-name="Réteg 1">
    <g>
      <g>
        <circle class="cls-1" cx="64.8" cy="38.2" r="22.4"/>
        <circle class="cls-3" cx="64.8" cy="37.61" r="4.43"/>
        <path class="cls-3" d="M69.22,37.61h-8.85l-1.63-11c-.54-3.62,2.27-6.87,5.93-6.87h0c3.6,0,6.39,3.16,5.94,6.73l-1.39,11.14Z"/>
        <path class="cls-3" d="M62.81,34.06l4.51,7.62-8.64,7c-2.84,2.3-7.07,1.54-8.93-1.6h0c-1.83-3.1-.54-7.11,2.77-8.54l10.29-4.47Z"/>
        <path class="cls-3" d="M66.71,34.06l-4.51,7.62,8.64,7c2.84,2.3,7.07,1.54,8.93-1.6h0c1.83-3.1.54-7.11-2.77-8.54l-10.29-4.47Z"/>
        <line class="cls-1" x1="60.37" y1="60.6" x2="60.37" y2="107.18"/>
        <line class="cls-1" x1="69.22" y1="60.6" x2="69.22" y2="107.18"/>
        <line class="cls-1" x1="64.67" y1="15.8" x2="64.67" y2="60.6"/>
        <polyline class="cls-1" points="70.75 59.8 70.75 17.4 70.75 16.61"/>
        <line class="cls-1" x1="76.83" y1="57.1" x2="76.83" y2="19.31"/>
        <line class="cls-1" x1="82.91" y1="51.38" x2="82.91" y2="25.01"/>
        <line class="cls-1" x1="46.43" y1="51" x2="46.43" y2="25.39"/>
        <line class="cls-1" x1="52.51" y1="56.92" x2="52.51" y2="19.48"/>
        <line class="cls-1" x1="58.59" y1="59.72" x2="58.59" y2="16.69"/>
        <rect class="cls-1" x="45.13" y="107.18" width="39.07" height="6.62"/>
      </g>
      <rect class="cls-2" width="129.61" height="129.61"/>
    </g>
  </g>
</svg>